<svg width="2172" height="1074" viewBox="0 0 2172 1074" fill="none" xmlns="http://www.w3.org/2000/svg">
<path d="M304.892 221.363C127.584 -137.895 109.012 20.5273 0 139.709L124.664 1074H2172C1622.15 930.879 1736.2 447.67 1207.68 550.556C679.159 653.442 1104.87 263.678 850.563 345.133C596.256 426.588 482.2 580.621 304.892 221.363Z" fill="#52784F"/>
<path d="M565.693 788.257C300.715 1079.26 148.669 420.462 118.503 108.791C88.3379 -202.88 101.19 1073.7 101.19 1073.7L1646.27 1073.7C1646.27 1073.7 1202.02 721.054 1109.34 788.257C986.813 877.108 832.069 931.719 867.812 788.257C903.555 644.794 830.672 497.254 565.693 788.257Z" fill="#F4D2EB"/>
<path d="M495.816 943.819C197.517 1147.98 164.541 776.08 140.578 633.937C116.615 491.794 126.825 1074 126.825 1074L1354.21 1074C1354.21 1074 1001.3 913.17 927.677 943.819C830.344 984.341 688.909 1024.31 735.812 943.819C782.715 863.33 794.114 739.656 495.816 943.819Z" fill="white"/>
</svg>
