<svg width="2426" height="2028" viewBox="0 0 2426 2028" fill="none" xmlns="http://www.w3.org/2000/svg">
<path d="M340.547 417.993C142.504 -260.383 121.761 38.761 0 263.809L139.242 2028H2426C1811.85 1757.75 1939.24 845.321 1348.91 1039.6C758.582 1233.87 1234.08 497.895 950.031 651.703C665.984 805.512 538.59 1096.37 340.547 417.993Z" fill="#52784F"/>
<path d="M631.847 1488.44C335.881 2037.93 166.054 793.946 132.361 205.427C98.6684 -383.091 113.023 2027.43 113.023 2027.43L1838.79 2027.43C1838.79 2027.43 1342.58 1361.54 1239.07 1488.44C1102.21 1656.21 929.373 1759.34 969.296 1488.44C1009.22 1217.54 927.813 938.949 631.847 1488.44Z" fill="#F4D2EB"/>
<path d="M553.798 1782.18C220.616 2167.7 183.783 1465.45 157.018 1197.04C130.253 928.639 141.656 2028 141.656 2028L1512.57 2028C1512.57 2028 1118.39 1724.31 1036.16 1782.18C927.447 1858.7 769.472 1934.17 821.86 1782.18C874.248 1630.2 886.98 1396.67 553.798 1782.18Z" fill="white"/>
</svg>
