<svg width="60" height="60" viewBox="0 0 60 60" fill="none" xmlns="http://www.w3.org/2000/svg">
<path d="M45 24.375H41.25C41.2485 22.8836 40.6554 21.4537 39.6008 20.3992C38.5463 19.3446 37.1164 18.7515 35.625 18.75V15C38.1105 15.003 40.4933 15.9917 42.2508 17.7492C44.0083 19.5067 44.997 21.8895 45 24.375Z" fill="black"/>
<path d="M52.5 24.375H48.75C48.7461 20.8953 47.362 17.5592 44.9014 15.0986C42.4409 12.6381 39.1048 11.254 35.625 11.25V7.50002C40.099 7.50498 44.3884 9.28447 47.552 12.4481C50.7156 15.6117 52.4951 19.901 52.5 24.375ZM38.1244 40.2788L42.3244 36.0788C42.8866 35.5164 43.6014 35.1314 44.3803 34.9715C45.1592 34.8115 45.968 34.8836 46.7063 35.1788L51.8213 37.2263C52.5752 37.5279 53.2214 38.0485 53.6766 38.7209C54.1318 39.3934 54.3751 40.1868 54.375 40.9988V50.3006C54.3764 50.8535 54.2648 51.4008 54.0473 51.9091C53.8297 52.4174 53.5108 52.8759 53.1099 53.2566C52.709 53.6373 52.2346 53.9322 51.7158 54.1232C51.1969 54.3142 50.6446 54.3974 50.0925 54.3675C14.2388 52.1363 6.99754 21.7688 5.65316 10.14C5.58805 9.57151 5.64403 8.99566 5.81744 8.45034C5.99084 7.90502 6.27773 7.40259 6.65923 6.9761C7.04074 6.54961 7.50821 6.20872 8.03091 5.97585C8.55361 5.74298 9.11969 5.62342 9.69191 5.62502H18.8288C19.6408 5.62499 20.4342 5.86826 21.1066 6.32345C21.779 6.77864 22.2996 7.42487 22.6013 8.17877L24.6469 13.2938C24.9421 14.0321 25.0142 14.8408 24.8542 15.6197C24.6942 16.3986 24.3092 17.1134 23.7469 17.6756L19.5469 21.8756C19.5469 21.8756 21.8757 38.2481 38.1244 40.2788Z" fill="black"/>
</svg>
