<svg width="1437" height="625" viewBox="0 0 1437 625" fill="none" xmlns="http://www.w3.org/2000/svg">
<path d="M126.5 129C2.04961 -79.9894 -10.9856 12.1688 -87.5 81.5L0 625H1437C1051.07 541.743 1131.12 260.648 760.155 320.5C389.194 380.351 687.995 153.616 509.5 201C331.005 248.384 250.95 337.989 126.5 129Z" fill="#52784F"/>
<path d="M309.553 458.776C123.568 628.06 16.8486 244.821 -4.32404 63.5142C-25.4967 -117.793 -16.476 624.824 -16.476 624.824L1068 624.825C1068 624.825 756.18 419.682 691.133 458.776C605.132 510.463 496.519 542.232 521.606 458.776C546.694 375.32 495.538 289.493 309.553 458.776Z" fill="#F4D2EB"/>
<path d="M260.507 549.271C51.1351 668.037 27.9891 451.693 11.17 369.004C-5.64907 286.316 1.51679 625 1.51679 625L863 625C863 625 615.297 531.441 563.625 549.271C495.308 572.843 396.037 596.094 428.957 549.271C461.878 502.448 469.879 430.504 260.507 549.271Z" fill="white"/>
</svg>
