<svg width="41" height="35" viewBox="0 0 41 35" fill="none" xmlns="http://www.w3.org/2000/svg">
<path d="M0.625 11.0009V27.4375C0.625 29.1946 1.32299 30.8797 2.56542 32.1221C3.80785 33.3645 5.49294 34.0625 7.25 34.0625H33.75C35.5071 34.0625 37.1922 33.3645 38.4346 32.1221C39.677 30.8797 40.375 29.1946 40.375 27.4375V7.5625C40.375 5.80544 39.677 4.12035 38.4346 2.87792C37.1922 1.63549 35.5071 0.9375 33.75 0.9375H7.25C5.49294 0.9375 3.80785 1.63549 2.56542 2.87792C1.32299 4.12035 0.625 5.80544 0.625 7.5625V11.0009ZM7.25 4.25H33.75C34.6285 4.25 35.4711 4.599 36.0923 5.22021C36.7135 5.84142 37.0625 6.68397 37.0625 7.5625V10.0137L20.5 18.931L3.9375 10.0137V7.5625C3.9375 6.68397 4.28649 5.84142 4.90771 5.22021C5.52892 4.599 6.37147 4.25 7.25 4.25V4.25ZM3.9375 13.7767L19.7149 22.27C19.9562 22.3999 20.226 22.4679 20.5 22.4679C20.774 22.4679 21.0438 22.3999 21.2851 22.27L37.0625 13.7767V27.4375C37.0625 28.316 36.7135 29.1586 36.0923 29.7798C35.4711 30.401 34.6285 30.75 33.75 30.75H7.25C6.37147 30.75 5.52892 30.401 4.90771 29.7798C4.28649 29.1586 3.9375 28.316 3.9375 27.4375V13.7767Z" fill="#50754D"/>
</svg>
