<svg width="42" height="42" viewBox="0 0 42 42" fill="none" xmlns="http://www.w3.org/2000/svg">
<path d="M36.625 41.3125H36.3594C5.65624 39.5469 1.29686 13.6406 0.68749 5.73438C0.638389 5.11966 0.711066 4.50129 0.901357 3.9147C1.09165 3.32812 1.39581 2.78485 1.79642 2.31602C2.19703 1.84719 2.68622 1.46201 3.23594 1.18256C3.78567 0.903111 4.38513 0.734878 4.99999 0.687501H13.6094C14.2352 0.686896 14.8469 0.874235 15.365 1.22525C15.8832 1.57627 16.284 2.0748 16.5156 2.65625L18.8906 8.5C19.1193 9.06804 19.176 9.69075 19.0538 10.2908C18.9316 10.8908 18.6358 11.4417 18.2031 11.875L14.875 15.2344C15.3949 18.1887 16.8097 20.912 18.928 23.0359C21.0463 25.1598 23.7658 26.5817 26.7187 27.1094L30.1094 23.75C30.5492 23.3221 31.1053 23.0332 31.7082 22.9193C32.3112 22.8054 32.9344 22.8715 33.5 23.1094L39.3906 25.4688C39.9633 25.7076 40.4519 26.1116 40.7942 26.6292C41.1364 27.1467 41.3169 27.7545 41.3125 28.375V36.625C41.3125 37.8682 40.8186 39.0605 39.9396 39.9396C39.0605 40.8186 37.8682 41.3125 36.625 41.3125ZM5.37499 3.8125C4.96059 3.8125 4.56316 3.97712 4.27014 4.27015C3.97711 4.56317 3.81249 4.9606 3.81249 5.375V5.5C4.53124 14.75 9.14061 36.625 36.5312 38.1875C36.7365 38.2002 36.9423 38.1722 37.1367 38.1052C37.3312 38.0382 37.5105 37.9335 37.6643 37.797C37.8182 37.6606 37.9436 37.4951 38.0334 37.31C38.1232 37.125 38.1755 36.9241 38.1875 36.7188V28.375L32.2969 26.0156L27.8125 30.4688L27.0625 30.375C13.4687 28.6719 11.625 15.0781 11.625 14.9375L11.5312 14.1875L15.9687 9.70313L13.625 3.8125H5.37499Z" fill="#50754D"/>
</svg>
