<svg width="57" height="48" viewBox="0 0 57 48" fill="none" xmlns="http://www.w3.org/2000/svg">
<path d="M9.375 0.25C6.8886 0.25 4.50403 1.23772 2.74587 2.99587C0.98772 4.75403 0 7.1386 0 9.625V10.5672L28.125 25.7125L56.25 10.5719V9.625C56.25 7.1386 55.2623 4.75403 53.5041 2.99587C51.746 1.23772 49.3614 0.25 46.875 0.25H9.375ZM56.25 15.8922L29.2359 30.4375C28.8945 30.6213 28.5128 30.7175 28.125 30.7175C27.7372 30.7175 27.3555 30.6213 27.0141 30.4375L0 15.8922V37.75C0 40.2364 0.98772 42.621 2.74587 44.3791C4.50403 46.1373 6.8886 47.125 9.375 47.125H46.875C49.3614 47.125 51.746 46.1373 53.5041 44.3791C55.2623 42.621 56.25 40.2364 56.25 37.75V15.8922Z" fill="black"/>
</svg>
